PathFileType	4	(X/Y/Z)	4_coords_data.trc
DataRate	CameraRate	NumFrames	NumMarkers	Units	OrigDataRate	OrigDataStartFrame	OrigNumFrames
30.0	30.0	5	21	m	30.0	20	57
Frame#	Time	THUMB_TIP	THUMB_IP	THUMB_MCP	THUMB_CMC	INDEX_TIP	INDEX_DIP	INDEX_PIP	INDEX_MCP	MIDDLE_TIP	MIDDLE_DIP	MIDDLE_PIP	MIDDLE_MCP	RING_TIP	RING_DIP	RING_PIP	RING_MCP	PINKY_TIP	PINKY_DIP	PINKY_PIP	PINKY_MCP	WRIST
X1	Y1	Z1	X2	Y2	Z2	X3	Y3	Z3	X4	Y4	Z4	X5	Y5	Z5	X6	Y6	Z6	X7	Y7	Z7	X8	Y8	Z8	X9	Y9	Z9	X10	Y10	Z10	X11	Y11	Z11	X12	Y12	Z12	X13	Y13	Z13	X14	Y14	Z14	X15	Y15	Z15	X16	Y16	Z16	X17	Y17	Z17	X18	Y18	Z18	X19	Y19	Z19	X20	Y20	Z20	X21	Y21	Z21
19	0.6333333333333333	-0.0037696199417114264	-0.03060379981994629	1.0633800048828126	-0.011496899604797363	-0.05253659820556641	1.076530029296875	-0.031696699142456056	-0.06661150360107422	1.097030029296875	-0.042689701080322266	-0.035127201080322266	1.1079300537109376	-0.04192070007324219	-0.05581230163574219	1.07852001953125	-0.026204700469970702	-0.05668439865112305	1.069719970703125	-0.022907800674438476	-0.06061780166625977	1.049300048828125	-0.06718379974365235	-0.0617510986328125	1.050510009765625	-0.028156499862670898	-0.03912480163574219	1.081760009765625	-0.02577910041809082	-0.03667210006713867	1.076449951171875	-0.017042200088500978	-0.03680590057373047	1.04877001953125	-0.06419819641113281	-0.0375614013671875	1.0411600341796876	-0.023079099655151366	-0.02431719970703125	1.0758699951171875	-0.029232200622558595	-0.01841510009765625	1.0854599609375	-0.011868800163269043	-0.015518199920654297	1.0629100341796875	-0.05471530151367188	-0.012976699829101563	1.04281005859375	-0.041953201293945315	-0.0013106100559234619	1.0876700439453124	-0.028088300704956055	-0.001578369975090026	1.083989990234375	-0.016342199325561524	0.004230199813842773	1.066050048828125	-0.04833089828491211	0.010879799842834473	1.0489000244140625	-0.07877429962158203	-0.008083209991455079	1.1208299560546875
20	0.6666666666666666	-0.004048359870910644	-0.03040489959716797	1.0636099853515626	-0.011636699676513672	-0.05267200088500976	1.076199951171875	-0.03190040016174316	-0.06647319793701172	1.097300048828125	-0.04302790069580078	-0.03503469848632813	1.108260009765625	-0.042406898498535156	-0.05471849822998047	1.0799100341796875	-0.026326499938964843	-0.05663169860839844	1.0695799560546875	-0.02325760078430176	-0.060534400939941405	1.0493900146484374	-0.06753450012207031	-0.06148030090332031	1.0508900146484375	-0.02830710029602051	-0.03900830078125	1.08143994140625	-0.02602790069580078	-0.03654819869995117	1.0764000244140626	-0.017267799377441405	-0.03665029907226563	1.0488800048828124	-0.0644051971435547	-0.037333000183105466	1.0414200439453125	-0.023525400161743162	-0.024316099166870116	1.076699951171875	-0.02951609992980957	-0.018309999465942382	1.0856800537109375	-0.012082900047302246	-0.01539169979095459	1.0630899658203126	-0.054895599365234374	-0.01275059986114502	1.0430699462890625	-0.04193230056762695	-0.001082710027694702	1.0868499755859375	-0.028262399673461915	-0.001449689984321594	1.0841700439453126	-0.016477500915527344	0.004307799816131592	1.0662900390625	-0.04850469970703125	0.011065500259399414	1.0492099609375	-0.07893779754638672	-0.007982560157775879	1.121260009765625
21	0.7	-0.00417795991897583	-0.03043600082397461	1.0638699951171875	-0.011907500267028808	-0.05252009963989258	1.076760009765625	-0.03221490097045898	-0.06650240325927734	1.0973599853515625	-0.04319969940185547	-0.0349625015258789	1.10843994140625	-0.04219260025024414	-0.05492829895019531	1.0798900146484376	-0.026592100143432617	-0.05672050094604492	1.06956005859375	-0.023470399856567382	-0.06047700119018555	1.04952001953125	-0.06769699859619141	-0.061461200714111326	1.05097998046875	-0.028503599166870116	-0.038946201324462894	1.0816500244140625	-0.026200099945068358	-0.03650799942016601	1.0765799560546876	-0.017418399810791015	-0.03658570098876953	1.04902001953125	-0.06461180114746094	-0.037249099731445315	1.0415999755859375	-0.023874399185180663	-0.02421780014038086	1.0763599853515624	-0.029691099166870117	-0.018240299224853516	1.08581005859375	-0.012287699699401855	-0.015336700439453125	1.063300048828125	-0.055089698791503904	-0.01268400001525879	1.043260009765625	-0.04220199966430664	-0.001013409972190857	1.0880999755859375	-0.028424400329589844	-0.0013917700052261351	1.0844100341796874	-0.016708499908447267	0.004399149894714355	1.0664200439453124	-0.048706600189208984	0.011170100212097168	1.0494200439453125	-0.07897339630126952	-0.007880320072174072	1.1214100341796875
22	0.7333333333333333	-0.004366950035095215	-0.03068899917602539	1.0639599609375	-0.012155900001525879	-0.052568901062011716	1.0769000244140625	-0.03246139907836914	-0.06657309722900391	1.0975799560546875	-0.04348210144042969	-0.03500680160522461	1.10868994140625	-0.03987160110473633	-0.05443130111694336	1.07975	-0.026815999984741212	-0.056688400268554685	1.0698599853515625	-0.023717300415039062	-0.06061410140991211	1.04968994140625	-0.06790619659423829	-0.06150189971923828	1.051219970703125	-0.02891349983215332	-0.039039699554443356	1.0820899658203125	-0.02624290084838867	-0.03658269882202148	1.0765699462890626	-0.017665800094604493	-0.036756401062011716	1.04906005859375	-0.06480229949951172	-0.03731280136108398	1.04177001953125	-0.024033100128173827	-0.024356599807739257	1.077280029296875	-0.029826400756835937	-0.018371099472045897	1.08597998046875	-0.01246749973297119	-0.015506799697875977	1.0633299560546876	-0.0552765998840332	-0.012712100028991698	1.0433599853515625	-0.04256150054931641	-0.0009578949809074401	1.0888599853515626	-0.028598899841308593	-0.001505599975585937	1.0844000244140626	-0.016890399932861327	0.004240260124206543	1.066449951171875	-0.04888579940795899	0.011113699913024902	1.0495	-0.0791885986328125	-0.007954229831695556	1.1214200439453126
23	0.7666666666666667	-0.004707590103149414	-0.031220100402832032	1.0639300537109375	-0.012417099952697753	-0.05326800155639649	1.07675	-0.032736801147460935	-0.06675530242919922	1.0978299560546876	-0.04353900146484375	-0.03523979949951172	1.1088199462890624	-0.04198809814453125	-0.05526559829711914	1.080010009765625	-0.027108699798583984	-0.057077499389648435	1.070030029296875	-0.024037300109863283	-0.061162799835205076	1.0498299560546875	-0.06821859741210938	-0.06171730041503906	1.0514300537109376	-0.029096399307250977	-0.039270000457763674	1.0824000244140626	-0.026652000427246095	-0.03694779968261719	1.0765899658203124	-0.018028799057006835	-0.03721279907226562	1.0489100341796875	-0.06510540008544922	-0.03754610061645508	1.04193994140625	-0.023986600875854493	-0.024746999740600586	1.07647998046875	-0.02994470024108887	-0.01867490005493164	1.0858199462890625	-0.012691100120544434	-0.015918999671936034	1.06318994140625	-0.05553400039672852	-0.013001399993896484	1.0434200439453125	-0.042599098205566406	-0.0014588899612426752	1.0884000244140626	-0.028698099136352538	-0.0018144899606704712	1.0841300048828124	-0.017052999496459963	0.0038057000637054445	1.0661500244140625	-0.049129600524902346	0.010836600303649902	1.0494300537109376	-0.07925540161132813	-0.008077509880065918	1.1213900146484375
